<svg width="30" height="26" viewBox="0 0 30 26" fill="none" xmlns="http://www.w3.org/2000/svg">
<path d="M27.6738 3.11612L29.43 15.5062L23.8689 15.9224L23.4062 15.9571V16.4211V25.5H6.59375V16.4211V15.9571L6.13107 15.9224L0.57002 15.5062L2.32624 3.11612L10.3916 0.5H15H19.6084L27.6738 3.11612Z" fill="white" stroke="black"/>
<path d="M15 5.41086L9.13557 3.78038L10.4725 0.853308L14.6513 4.91974L15 5.25906L15.3487 4.91974L19.5275 0.853308L20.8644 3.78038L15 5.41086Z" stroke="black"/>
<path d="M14.5313 5.01758H15.4688L15.4687 22.807H14.5312L14.5313 5.01758Z" fill="black"/>
<path d="M6.09375 7.29834H7.03125V14.1404V15.965H6.09375V14.1404L0.9375 13.6843V12.772L6.09375 13.2282V7.29834Z" fill="black"/>
<path d="M23.9062 7.29834H22.9688V14.1404V15.965H23.9062V14.1404L29.0625 13.6843V12.772L23.9062 13.2282V7.29834Z" fill="black"/>
</svg>
