<svg width="23" height="17" viewBox="0 0 23 17" fill="none" xmlns="http://www.w3.org/2000/svg">
<path d="M14.1093 3.55556C13.7361 2.80304 13.1765 2.39307 12.3997 2.02549C9.78268 0.787181 6.52125 1.42658 4.48222 3.48192V3.48192C2.001 5.98299 2.001 10.017 4.48222 12.5181L5.1666 13.2079C6.89835 14.9535 9.48106 15.8844 11.6246 14.6796C15.1475 12.6995 16.4357 9.3982 15.873 8" stroke="#F9F9F9" stroke-opacity="0.78" stroke-width="2"/>
<path d="M22.4692 3.17285C22.5646 2.91374 22.432 2.62629 22.1729 2.53083L17.9503 0.975154C17.6912 0.87969 17.4037 1.01236 17.3083 1.27147C17.2128 1.53059 17.3455 1.81803 17.6046 1.9135L21.358 3.29632L19.9752 7.04969C19.8797 7.30881 20.0124 7.59625 20.2715 7.69172C20.5306 7.78718 20.818 7.65451 20.9135 7.3954L22.4692 3.17285ZM9.20953 9.45398L22.2095 3.45398L21.7905 2.54602L8.79047 8.54602L9.20953 9.45398Z" fill="#F9F9F9" fill-opacity="0.78"/>
</svg>
