<svg width="20" height="18" viewBox="0 0 20 18" fill="none" xmlns="http://www.w3.org/2000/svg">
<path d="M0 8.38462H13.2176C13.6356 8.38462 14.0547 8.34956 14.4596 8.24541C15.2388 8.04492 15.8494 7.7878 16.426 7.44756C17.7303 6.67787 18.0648 4.97091 17.4823 3.57292V3.57292C17.1246 2.7145 16.4365 2.03615 15.5731 1.69077L13.8462 1" stroke="#F9F9F9" stroke-opacity="0.78" stroke-width="2"/>
<path d="M0 10.8461H7.69231C9.02451 10.8573 9.92194 11.0022 10.9658 11.4293C11.8155 11.7769 12.3077 12.6494 12.3077 13.5675V13.5675C12.3077 14.192 12.0822 14.8028 11.6316 15.2351C10.9672 15.8727 10.3168 16.3409 9.23077 17" stroke="#F9F9F9" stroke-opacity="0.78" stroke-width="2"/>
<path d="M13.8461 10.8461H16.2543C16.6872 10.8461 17.1072 10.9935 17.4453 11.2639V11.2639C18.586 12.1764 18.3187 13.9802 16.9624 14.5227L16.9231 14.5384" stroke="#F9F9F9" stroke-opacity="0.78" stroke-width="2"/>
</svg>
